<?xml version="1.0" encoding="UTF-8" standalone="no"?><!-- Generator: Gravit.io --><svg xmlns="http://www.w3.org/2000/svg" xmlns:xlink="http://www.w3.org/1999/xlink" style="isolation:isolate" viewBox="0 0 200 200" width="200pt" height="200pt"><defs><clipPath id="_clipPath_Xf9Gjqqi5fey5qEG5nIDtQnxGM3WDw11"><rect width="200" height="200"/></clipPath></defs><g clip-path="url(#_clipPath_Xf9Gjqqi5fey5qEG5nIDtQnxGM3WDw11)"><circle vector-effect="non-scaling-stroke" cx="100.00000000000001" cy="100.00000000000001" r="90.00000000000006" fill="rgb(97,242,128)" stroke-width="7" stroke="rgb(47,187,132)" stroke-linejoin="miter" stroke-linecap="square" stroke-miterlimit="3"/><path d=" M 112.25 180 L 100 180 L 87.75 180 C 80.713 180 76.807 174.58 79.032 167.904 L 87.5 142.5 L 95.968 117.096 C 98.193 110.42 101.807 110.42 104.032 117.096 L 112.5 142.5 L 120.968 167.904 C 123.193 174.58 119.287 180 112.25 180 Z " fill="rgb(47,187,132)"/><path d=" M 52.094 165.231 L 43.431 156.569 L 34.769 147.906 C 29.794 142.931 30.864 136.336 37.158 133.189 L 61.109 121.213 L 85.061 109.238 C 91.355 106.091 93.909 108.645 90.762 114.939 L 78.787 138.891 L 66.811 162.842 C 63.664 169.136 57.069 170.206 52.094 165.231 Z " fill="rgb(47,187,132)"/><path d=" M 20 112.25 L 20 100 L 20 87.75 C 20 80.713 25.42 76.807 32.096 79.032 L 57.5 87.5 L 82.904 95.968 C 89.58 98.193 89.58 101.807 82.904 104.032 L 57.5 112.5 L 32.096 120.968 C 25.42 123.193 20 119.287 20 112.25 Z " fill="rgb(47,187,132)"/><path d=" M 34.769 52.094 L 43.431 43.431 L 52.094 34.769 C 57.069 29.794 63.664 30.864 66.811 37.158 L 78.787 61.109 L 90.762 85.061 C 93.909 91.355 91.355 93.909 85.061 90.762 L 61.109 78.787 L 37.158 66.811 C 30.864 63.664 29.794 57.069 34.769 52.094 Z " fill="rgb(47,187,132)"/><path d=" M 87.75 20 L 100 20 L 112.25 20 C 119.287 20 123.193 25.42 120.968 32.096 L 112.5 57.5 L 104.032 82.904 C 101.807 89.58 98.193 89.58 95.968 82.904 L 87.5 57.5 L 79.032 32.096 C 76.807 25.42 80.713 20 87.75 20 Z " fill="rgb(47,187,132)"/><path d=" M 147.906 34.769 L 156.569 43.431 L 165.231 52.094 C 170.206 57.069 169.136 63.664 162.842 66.811 L 138.891 78.787 L 114.939 90.762 C 108.645 93.909 106.091 91.355 109.238 85.061 L 121.213 61.109 L 133.189 37.158 C 136.336 30.864 142.931 29.794 147.906 34.769 Z " fill="rgb(47,187,132)"/><path d=" M 180 87.75 L 180 100 L 180 112.25 C 180 119.287 174.58 123.193 167.904 120.968 L 142.5 112.5 L 117.096 104.032 C 110.42 101.807 110.42 98.193 117.096 95.968 L 142.5 87.5 L 167.904 79.032 C 174.58 76.807 180 80.713 180 87.75 Z " fill="rgb(47,187,132)"/><path d=" M 165.231 147.906 L 156.569 156.569 L 147.906 165.231 C 142.931 170.206 136.336 169.136 133.189 162.842 L 121.213 138.891 L 109.238 114.939 C 106.091 108.645 108.645 106.091 114.939 109.238 L 138.891 121.213 L 162.842 133.189 C 169.136 136.336 170.206 142.931 165.231 147.906 Z " fill="rgb(47,187,132)"/></g></svg>